<svg width="29" height="28" viewBox="0 0 29 28" fill="none" xmlns="http://www.w3.org/2000/svg">
<path d="M19.3333 24.5V22.1667C19.3333 20.929 18.8241 19.742 17.9177 18.8668C17.0113 17.9917 15.7819 17.5 14.5 17.5H6.04166C4.75978 17.5 3.5304 17.9917 2.62398 18.8668C1.71755 19.742 1.20833 20.929 1.20833 22.1667V24.5M24.1667 9.33333V16.3333M27.7917 12.8333H20.5417M15.1042 8.16667C15.1042 10.744 12.9402 12.8333 10.2708 12.8333C7.60145 12.8333 5.43749 10.744 5.43749 8.16667C5.43749 5.58934 7.60145 3.5 10.2708 3.5C12.9402 3.5 15.1042 5.58934 15.1042 8.16667Z" stroke="#1693A5" stroke-width="2" stroke-linecap="round" stroke-linejoin="round"/>
</svg>
