<?xml version="1.0" encoding="UTF-8"?>
<svg id="Capa_1" xmlns="http://www.w3.org/2000/svg" version="1.1" viewBox="0 0 452.95 178.38">
  <!-- Generator: Adobe Illustrator 30.0.0, SVG Export Plug-In . SVG Version: 2.1.1 Build 123)  -->
  <defs>
    <style>
      .st0, .st1, .st2 {
        fill: #fff;
      }

      .st0, .st2, .st3 {
        stroke: #007b3e;
      }

      .st0, .st3 {
        stroke-miterlimit: 10;
        stroke-width: .75px;
      }

      .st4 {
        isolation: isolate;
      }

      .st2 {
        stroke-miterlimit: 10;
        stroke-width: .75px;
      }

      .st5 {
        fill: #007b3e;
      }

      .st3 {
        fill: none;
      }
    </style>
  </defs>
  <g>
    <g>
      <path class="st0" d="M68.75,129.39c7.39-3.16,12.91-6.27,16.59-8.54,3.49-2.15,4.17-2.81,6.37-3.68,1.27-.5,6.9-2.57,18.24-.48,9.68,1.79,10.75,4.26,21.31,5.78,7.12,1.03,9.68.35,10.5.11,3.81-1.11,4.43-2.83,11.55-5.93,3.75-1.64,6.39-2.39,8.33-1.31,1.11.62,1.18,1.39,2.31,1.64,1.89.42,2.77-1.51,6.02-2.43.93-.26,3.36-.95,5.6,0,1.92.82,1.89,2.07,3.57,2.5,1.7.43,2.54-.65,4.9-1.18,3.21-.72,7.42-.03,8.75,2.04,1.16,1.81-.13,4.42-.56,5.32-.72,1.51-1.69,2.46-2.02,2.77-12.41,11.87-24.79,19.16-24.79,19.16-13.49,7.94-20.31,11.92-24.15,12.41-5.59.71-10.26-.12-19.6-1.77-10.83-1.92-12.51-4.05-19.53-4.79-5-.53-12.42-.39-21.94,3.17"/>
      <path class="st0" d="M68.75,129.39c7.39-3.16,12.91-6.27,16.59-8.54,3.49-2.15,4.17-2.81,6.37-3.68,1.27-.5,6.9-2.57,18.24-.48,9.68,1.79,10.75,4.26,21.31,5.78,7.12,1.03,9.68.35,10.5.11,3.81-1.11,4.43-2.83,11.55-5.93,3.75-1.64,6.39-2.39,8.33-1.31,1.11.62,1.18,1.39,2.31,1.64,1.89.42,2.77-1.51,6.02-2.43.93-.26,3.36-.95,5.6,0,1.92.82,1.89,2.07,3.57,2.5,1.7.43,2.54-.65,4.9-1.18,3.21-.72,7.42-.03,8.75,2.04,1.16,1.81-.13,4.42-.56,5.32-.72,1.51-1.69,2.46-2.02,2.77-12.41,11.87-24.79,19.16-24.79,19.16-13.49,7.94-20.31,11.92-24.15,12.41-5.59.71-10.26-.12-19.6-1.77-10.83-1.92-12.51-4.05-19.53-4.79-5-.53-12.42-.39-21.94,3.17"/>
    </g>
    <path class="st0" d="M115.23,139.96c2.12-.93,5.34-2.08,9.38-2.5,3.75-.39,5.79.11,11.13.79,17.23,2.2,19.8.1,20.58-.66,1.42-1.38,2.17-3.42,1.89-5.19-.78-4.89-9.4-7.19-12.97-8.14-3.88-1.04-7.23-1.24-9.43-1.24"/>
    <line class="st3" x1="150.26" y1="125.81" x2="164.37" y2="117.03"/>
    <line class="st3" x1="179.72" y1="117.14" x2="157.65" y2="130.83"/>
    <g>
      <polygon class="st0" points="50.69 131.36 66.79 125.38 82.05 158.15 66.37 165.57 50.69 131.36"/>
      <polygon class="st0" points="50.69 131.36 66.79 125.38 82.05 158.15 66.37 165.57 50.69 131.36"/>
    </g>
  </g>
  <g>
    <g>
      <rect class="st1" x="122.3" y="33.84" width="78.01" height="48.49" rx="6.81" ry="6.81" transform="translate(43.11 182.28) rotate(-66.22)"/>
      <rect class="st1" x="122.3" y="33.84" width="78.01" height="48.49" rx="6.81" ry="6.81" transform="translate(43.11 182.28) rotate(-66.22)"/>
    </g>
    <g>
      <rect class="st2" x="132.64" y="37.08" width="59.95" height="39" transform="translate(45.27 182.58) rotate(-66.22)"/>
      <rect class="st2" x="132.64" y="37.08" width="59.95" height="39" transform="translate(45.27 182.58) rotate(-66.22)"/>
    </g>
  </g>
  <path class="st0" d="M82,83.12c-.2-.61-.61-1.53-1.47-2.29-2.44-2.17-6.1-1-8.84-1.25-6.15-.57-12.75-8.79-13.14-17.45-.33-7.49,4.04-14.07,10.17-17.58,6.48-3.71,15.59-4.36,22.55.22,7.27,4.78,10.79,14.35,8.2,19.44-.7,1.37-2.5,3.72-1.78,6.44.36,1.35,1.22,2.33,1.9,2.96"/>
  <path class="st0" d="M82,83.12c-.2-.61-.61-1.53-1.47-2.29-2.44-2.17-6.1-1-8.84-1.25-6.15-.57-12.75-8.79-13.14-17.45-.33-7.49,4.04-14.07,10.17-17.58,6.48-3.71,15.59-4.36,22.55.22,7.27,4.78,10.79,14.35,8.2,19.44-.7,1.37-2.5,3.72-1.78,6.44.36,1.35,1.22,2.33,1.9,2.96"/>
  <polyline class="st0" points="89.02 70.16 90.95 73.17 84.92 76.58 83.25 73.97"/>
  <polyline class="st5" points="89.02 70.16 90.95 73.17 84.92 76.58 83.25 73.97"/>
  <polyline class="st0" points="91.3 66.81 93.93 67.94 95.84 61.85 92.5 61.15"/>
  <polyline class="st5" points="91.3 66.81 93.93 67.94 95.84 61.85 92.5 61.15"/>
  <polyline class="st0" points="92.22 58.08 95.62 56.17 92.21 50.87 88.48 53.08"/>
  <polyline class="st5" points="92.22 58.08 95.62 56.17 92.21 50.87 88.48 53.08"/>
  <polyline class="st0" points="85.66 51.54 86.87 47.87 81.37 46.77 80.27 50.02"/>
  <polyline class="st5" points="85.66 51.54 86.87 47.87 81.37 46.77 80.27 50.02"/>
  <polyline class="st0" points="76.53 50.7 74.15 46.98 68.12 50.38 70.25 53.7"/>
  <polyline class="st5" points="76.53 50.7 74.15 46.98 68.12 50.38 70.25 53.7"/>
  <path class="st0" d="M66.17,62.55l-3.58-1.58,1.45-4.41c1.28.1,2.55.21,3.83.31"/>
  <path class="st5" d="M66.17,62.55l-3.58-1.58,1.45-4.41c1.28.1,2.55.21,3.83.31"/>
  <path class="st0" d="M66.17,65.58c-1.12.63-2.23,1.26-3.35,1.89l3.4,5.3,2.89-1.63"/>
  <path class="st5" d="M66.17,65.58c-1.12.63-2.23,1.26-3.35,1.89l3.4,5.3,2.89-1.63"/>
  <polyline class="st0" points="71.88 72.8 71.79 76.64 78.61 77.4 78.27 74.47"/>
  <polyline class="st5" points="71.88 72.8 71.79 76.64 78.61 77.4 78.27 74.47"/>
  <polygon class="st1" points="102.95 75.62 81.09 87.97 79.65 85.71 101.5 73.37 102.95 75.62"/>
  <polygon class="st1" points="82.79 90.19 104.65 77.84 103.73 76.42 81.88 88.76 82.79 90.19"/>
  <polygon class="st1" points="83.53 91.02 105.01 78.89 105.99 80.41 84.51 92.54 83.53 91.02"/>
  <polygon class="st1" points="88.35 91.82 104.93 82.46 105.99 84.12 89.41 93.48 88.35 91.82"/>
  <line class="st3" x1="69.76" y1="79.2" x2="66.4" y2="86.02"/>
  <line class="st3" x1="60.96" y1="71.52" x2="49.66" y2="77.89"/>
  <line class="st3" x1="58.51" y1="62.16" x2="50.63" y2="62.52"/>
  <line class="st3" x1="60.74" y1="52.63" x2="51.71" y2="48.02"/>
  <line class="st3" x1="68.67" y1="44.58" x2="63.3" y2="36.21"/>
  <line class="st3" x1="78.99" y1="41.61" x2="80.1" y2="31.99"/>
  <line class="st3" x1="89.81" y1="43.96" x2="94.59" y2="36.62"/>
  <line class="st3" x1="97.73" y1="50.75" x2="109.62" y2="44.04"/>
  <line class="st3" x1="100.13" y1="62.05" x2="109.25" y2="62.84"/>
  <path class="st0" d="M65.72,31.98c1.22,1.9.35,4.48-1.94,5.78s-5.13.8-6.35-1.1-.35-4.48,1.94-5.78,5.13-.8,6.35,1.1Z"/>
  <path class="st0" d="M65.72,31.98c1.22,1.9.35,4.48-1.94,5.78s-5.13.8-6.35-1.1-.35-4.48,1.94-5.78,5.13-.8,6.35,1.1Z"/>
  <path class="st0" d="M83.23,27.26c1.11,1.72.52,3.96-1.3,4.99s-4.2.47-5.31-1.25-.52-3.96,1.3-4.99,4.2-.47,5.31,1.25Z"/>
  <path class="st0" d="M83.23,27.26c1.11,1.72.52,3.96-1.3,4.99s-4.2.47-5.31-1.25-.52-3.96,1.3-4.99,4.2-.47,5.31,1.25Z"/>
  <path class="st0" d="M99.16,32.53c1.2,1.88.57,4.31-1.42,5.43s-4.58.51-5.78-1.36-.57-4.31,1.42-5.43,4.58-.51,5.78,1.36Z"/>
  <path class="st0" d="M99.16,32.53c1.2,1.88.57,4.31-1.42,5.43s-4.58.51-5.78-1.36-.57-4.31,1.42-5.43,4.58-.51,5.78,1.36Z"/>
  <path class="st0" d="M116.07,40.58c1.36,2.12.53,4.92-1.85,6.27s-5.41.72-6.77-1.4-.53-4.92,1.85-6.27,5.41-.72,6.77,1.4Z"/>
  <path class="st0" d="M116.07,40.58c1.36,2.12.53,4.92-1.85,6.27s-5.41.72-6.77-1.4-.53-4.92,1.85-6.27,5.41-.72,6.77,1.4Z"/>
  <path class="st0" d="M116.66,59.8c1.2,1.88.57,4.31-1.42,5.43s-4.58.51-5.78-1.36-.57-4.31,1.42-5.43,4.58-.51,5.78,1.36Z"/>
  <path class="st0" d="M116.66,59.8c1.2,1.88.57,4.31-1.42,5.43s-4.58.51-5.78-1.36-.57-4.31,1.42-5.43,4.58-.51,5.78,1.36Z"/>
  <path class="st0" d="M67.31,87.45c1.15,1.79.39,4.19-1.69,5.36-2.08,1.18-4.7.68-5.84-1.1s-.39-4.19,1.69-5.36c2.08-1.18,4.7-.68,5.84,1.1Z"/>
  <path class="st0" d="M67.31,87.45c1.15,1.79.39,4.19-1.69,5.36-2.08,1.18-4.7.68-5.84-1.1s-.39-4.19,1.69-5.36c2.08-1.18,4.7-.68,5.84,1.1Z"/>
  <path class="st0" d="M50.62,77.43c1.08,1.68.25,4.01-1.86,5.19-2.1,1.19-4.68.79-5.76-.89s-.25-4.01,1.86-5.19,4.68-.79,5.76.89Z"/>
  <path class="st0" d="M50.62,77.43c1.08,1.68.25,4.01-1.86,5.19-2.1,1.19-4.68.79-5.76-.89s-.25-4.01,1.86-5.19,4.68-.79,5.76.89Z"/>
  <path class="st0" d="M50.88,60.23c1.09,1.7.22,4.08-1.96,5.3-2.17,1.23-4.82.84-5.91-.86s-.22-4.08,1.96-5.3c2.18-1.22,4.82-.84,5.91.86Z"/>
  <path class="st0" d="M50.88,60.23c1.09,1.7.22,4.08-1.96,5.3-2.17,1.23-4.82.84-5.91-.86s-.22-4.08,1.96-5.3c2.18-1.22,4.82-.84,5.91.86Z"/>
  <path class="st0" d="M52.2,44.79c1.11,1.72.33,4.07-1.74,5.24s-4.64.72-5.75-1-.33-4.07,1.74-5.24,4.64-.72,5.75,1Z"/>
  <path class="st0" d="M52.2,44.79c1.11,1.72.33,4.07-1.74,5.24s-4.64.72-5.75-1-.33-4.07,1.74-5.24,4.64-.72,5.75,1Z"/>
  <path class="st0" d="M90.82,55.89c3.59,5.6,1.33,13.05-5.05,16.66-6.38,3.6-14.47,1.99-18.06-3.61s-1.33-13.05,5.05-16.66c6.38-3.6,14.47-1.99,18.06,3.61Z"/>
  <path class="st0" d="M90.82,55.89c3.59,5.6,1.33,13.05-5.05,16.66-6.38,3.6-14.47,1.99-18.06-3.61s-1.33-13.05,5.05-16.66c6.38-3.6,14.47-1.99,18.06,3.61Z"/>
  <polygon class="st5" points="132.68 76.16 192.54 37.02 168.37 91.88 132.68 76.16"/>
  <path class="st5" d="M83.46,59.5c1.45,2.51.54,5.84-2.04,7.46-2.58,1.61-5.84.89-7.29-1.62s-.54-5.84,2.04-7.46c2.58-1.61,5.84-.89,7.29,1.62Z"/>
  <g class="st4">
    <g class="st4">
      <path class="st1" d="M253.58,84.56c0,9.27-5.76,14.62-15.82,14.62h-7.85v11.38h-8.93v-39.82h16.78c10.06,0,15.82,5.01,15.82,13.82ZM245.1,84.84c0-4.44-2.83-6.66-7.8-6.66h-7.4v13.48h7.4c4.97,0,7.8-2.28,7.8-6.83Z"/>
      <path class="st1" d="M283.58,110.55l-6.27-11.38h-9.1v11.38h-8.93v-39.82h17.18c10.34,0,16.22,5.01,16.22,13.82,0,6.14-2.6,10.58-7.4,12.86l8.42,13.14h-10.11ZM268.21,91.67h8.25c4.92,0,7.74-2.28,7.74-6.83s-2.83-6.66-7.74-6.66h-8.25v13.48Z"/>
      <path class="st1" d="M326.29,102.82h-18.31l-3.11,7.74h-9.21l17.18-39.82h9.21l16.89,39.82h-9.55l-3.11-7.74ZM323.4,95.59l-6.21-15.47-6.27,15.47h12.49Z"/>
      <path class="st1" d="M350.52,70.73l8.25,12.17,8.31-12.17h10.57l-13.17,19.06,14.29,20.76h-10.68l-9.32-13.25-9.15,13.25h-10.45l14.18-20.37-13.22-19.45h10.4Z"/>
      <path class="st1" d="M392.72,70.73v39.82h-8.93v-39.82h8.93Z"/>
      <path class="st1" d="M415.21,78.01c-3,0-5.03,1.08-5.03,3.24,0,7.34,21.08,3.24,21.02,17.58,0,7.79-6.72,12-15.48,12-6.5,0-13-2.5-17.46-6.31l3.56-7.34c4.07,3.64,9.83,5.97,14.01,5.97,3.67,0,5.88-1.37,5.88-3.81,0-7.51-21.08-3.13-21.08-17.24,0-7.22,6.16-11.78,15.31-11.78,5.54,0,11.08,1.71,15.03,4.32l-3.45,7.45c-4.18-2.5-9.15-4.1-12.32-4.1Z"/>
    </g>
  </g>
</svg>