<svg width="40" height="40" viewBox="0 0 40 40" fill="none" xmlns="http://www.w3.org/2000/svg">
<path d="M11.6667 18.3333V11.6666C11.6667 9.45651 12.5446 7.33689 14.1074 5.77409C15.6702 4.21129 17.7899 3.33331 20 3.33331C22.2101 3.33331 24.3298 4.21129 25.8926 5.77409C27.4554 7.33689 28.3333 9.45651 28.3333 11.6666V18.3333M8.33333 18.3333H31.6667C33.5076 18.3333 35 19.8257 35 21.6666V33.3333C35 35.1743 33.5076 36.6666 31.6667 36.6666H8.33333C6.49238 36.6666 5 35.1743 5 33.3333V21.6666C5 19.8257 6.49238 18.3333 8.33333 18.3333Z" stroke="#1693A5" stroke-width="3.5" stroke-linecap="round" stroke-linejoin="round"/>
</svg>
