<?xml version="1.0" encoding="UTF-8"?>
<svg id="Capa_1" data-name="Capa 1" xmlns="http://www.w3.org/2000/svg" viewBox="0 0 319.79 366.95">
  <defs>
    <style>
      .cls-1 {
        fill: #4aaec8;
      }
    </style>
  </defs>
  <path class="cls-1" d="M319.79,255.81c-.66,1.73-3.64,11.46-4.11,11.87-1.55,1.35-22.5-1.41-25.86.63-4.04,2.45-14.28,22.25-19.87,26.09-1.08,1.48-1.19,2.83-.95,4.6.77,5.71,8.27,17.84,8.69,22.44.08.87-.11,1.32-.87,1.78l-31.54,21.56c-3.51.35-20.25-14.96-24.9-17.03-10.25,3.7-20.8,6.6-31.55,8.43l-6.84,29.93c-1.18,1.75-36.99.19-42.16.15l-6.88-30.08c-10.82-1.76-21.31-4.95-31.72-8.26-2.36-.04-18.25,14.27-22.59,16.04-1.28.52-2.25,1.17-3.63.27-4.48-4.92-27.58-17.22-29.57-21.52-1.87-4.05,6.81-20.44,8.16-25.45-6.59-7.7-12.19-18.5-18.66-25.95-6.7-7.72-20.31-.95-28.29-3.68-2.1-.72-4.38-9.61-6.66-11.83h67.46c45.39,63.18,141.67,61.36,187.88,0h64.46Z"/>
  <path class="cls-1" d="M1,110.95c-.56-.5,5.5-11.43,6.66-11.83,5.77-1.98,21.96,2.26,26.35-1.63l19.62-25.98c-2.44-8.99-7.19-17.72-9.21-26.47l31.55-23.58,1.92.03,22.08,17.06c10.86-1.27,21.51-6.56,32.73-7.73L138.92.07l43.38-.07c1.42.24,4.67,24.36,6.05,28.05.52,1.39.79,2.08,2.24,2.75,7.43,3.45,21.5,4.19,29.62,7.97l24.11-17.56c8.47,7.57,21.85,13.51,29.96,20.82,1.23,1.11,3.47,2.69,3.5,4.44.06,3.36-7.66,17.27-8.59,22.5-.25,1.39-.58,2.33.51,3.55l19.3,26.2c4.38,1.37,24.35-1.12,26.64.36.53.34,3.64,10.13,4.13,11.85h-64.46c-46.39-63.99-143.01-63.31-189.88,0H1Z"/>
  <path class="cls-1" d="M236.85,129.93v71.43c0,.29,1.47,4.41,1.81,5.18,5.89,13.31,30.91,14.1,38.62,2.27.51-.78,2.54-5.04,2.54-5.45v-73.43h37.98v71.43c0,44.08-74.58,46.63-101.63,29.67-6.42-4.02-16.3-15.86-16.3-23.67v-77.42h36.98Z"/>
  <path class="cls-1" d="M178.88,155.91c-16.96-2.93-36.23-5.65-53.46-3.99-10.92,1.05-23.38,7.6-7.04,14.02,20.27,7.97,65.96,6.69,68.48,36.43,2.83,33.42-37.6,38.67-62.48,37.41-16.61,2.09-33.64-2.09-50.43-1.96v-24.98c19.84.64,42.6,7.23,62.2,2.74,11.68-2.67,14.83-9.71,2.27-14.75-18.54-7.43-61.94-7.32-67.03-31.89-2.36-11.4.43-21.29,9.64-28.44,16.89-13.12,55.64-12.05,76.35-10.57,6.9.49,13.89,2.24,20.88,2.1,2.48,1.01.61,2.06.61,2.38v21.48Z"/>
  <rect class="cls-1" x="16.99" y="129.93" width="37.98" height="108.89"/>
</svg>